<?xml version="1.0" encoding="utf-8"?>
<!-- Generator: Adobe Illustrator 16.0.0, SVG Export Plug-In . SVG Version: 6.00 Build 0)  -->
<!DOCTYPE svg PUBLIC "-//W3C//DTD SVG 1.1//EN" "http://www.w3.org/Graphics/SVG/1.1/DTD/svg11.dtd">
<svg version="1.1" xmlns="http://www.w3.org/2000/svg" xmlns:xlink="http://www.w3.org/1999/xlink" x="0px" y="0px" width="150px"
	 height="50px" viewBox="0 0 150 50" enable-background="new 0 0 150 50" xml:space="preserve">
<g id="Layer_1">
	<g>
		<path fill="#33A2DB" d="M18.694,14.354h1.015l0.145,0.681h12.403l0.116-0.681h1.058l2.13,5.941l-1.304,0.463
			c-0.628-1.584-1.372-2.697-2.231-3.34c-0.86-0.642-1.961-0.963-3.304-0.963c-0.56,0-0.894,0.021-1,0.065
			c-0.106,0.043-0.181,0.119-0.225,0.225c-0.043,0.106-0.065,0.444-0.065,1.014v14.026c0,0.666,0.036,1.115,0.109,1.348
			c0.072,0.231,0.176,0.41,0.312,0.536c0.135,0.125,0.321,0.215,0.558,0.268c0.237,0.054,0.766,0.085,1.587,0.095v1.217h-7.795
			v-1.217c0.859-0.01,1.386-0.039,1.579-0.088c0.338-0.098,0.58-0.282,0.725-0.555c0.145-0.271,0.217-0.772,0.217-1.502V17.569
			c0-0.443-0.021-0.714-0.065-0.811c-0.043-0.096-0.126-0.171-0.247-0.224c-0.121-0.053-0.37-0.08-0.746-0.08
			c-1.053,0-1.896,0.135-2.528,0.406c-0.633,0.271-1.229,0.729-1.79,1.376c-0.561,0.647-1.039,1.487-1.435,2.521l-1.304-0.463
			L18.694,14.354z"/>
		<path fill="#33A2DB" d="M37.473,23.337v-1.203c0.703-0.057,1.329-0.174,1.878-0.351s1.175-0.465,1.878-0.866h1.083v2.738
			c0.686-0.84,1.482-1.507,2.391-2c0.908-0.493,1.724-0.739,2.449-0.739c0.715,0,1.28,0.169,1.695,0.507
			c0.415,0.338,0.623,0.749,0.623,1.232c0,0.348-0.138,0.654-0.413,0.92c-0.275,0.266-0.606,0.398-0.992,0.398
			c-0.174,0-0.324-0.024-0.449-0.072c-0.126-0.048-0.31-0.155-0.551-0.319c-0.531-0.348-0.976-0.522-1.333-0.522
			c-0.483,0-1.014,0.203-1.594,0.609c-0.734,0.521-1.309,1.034-1.725,1.536v6.68c0,0.579,0.031,0.973,0.094,1.181
			s0.167,0.387,0.312,0.536c0.145,0.149,0.324,0.259,0.536,0.326s0.584,0.102,1.116,0.102h0.478v1.217h-7.491v-1.217h0.623
			c0.589,0,0.976-0.054,1.159-0.16c0.251-0.145,0.437-0.345,0.558-0.601c0.121-0.256,0.181-0.718,0.181-1.384v-8.549H37.473z"/>
		<path fill="#33A2DB" d="M50.427,23.337v-1.203c0.801-0.095,1.475-0.229,2.021-0.4c0.546-0.172,1.167-0.444,1.862-0.816h1.058
			v11.62c0,0.406,0.058,0.71,0.174,0.913c0.116,0.203,0.277,0.351,0.485,0.442c0.208,0.092,0.587,0.138,1.137,0.138h0.681v1.217
			h-7.418v-1.217h0.594c0.647,0,1.082-0.059,1.304-0.174c0.222-0.116,0.379-0.28,0.471-0.493c0.092-0.212,0.138-0.71,0.138-1.492
			v-8.535H50.427z M54.107,14.383c0.464,0,0.86,0.162,1.188,0.485c0.329,0.324,0.493,0.717,0.493,1.181
			c0,0.463-0.164,0.86-0.493,1.188c-0.328,0.329-0.724,0.493-1.188,0.493s-0.86-0.164-1.188-0.493
			c-0.329-0.328-0.493-0.725-0.493-1.188c0-0.464,0.164-0.857,0.493-1.181C53.248,14.545,53.644,14.383,54.107,14.383z"/>
		<path fill="#33A2DB" d="M69.249,21.266h1.017l1.302,4.434l-1.304,0.435c-0.521-1.188-1.253-2.123-2.195-2.804
			c-0.942-0.681-1.896-1.021-2.861-1.021c-0.744,0-1.348,0.181-1.812,0.543c-0.463,0.362-0.695,0.78-0.695,1.253
			c0,0.444,0.169,0.826,0.507,1.145c0.329,0.329,1.067,0.701,2.217,1.115l2.825,1c1.594,0.57,2.681,1.179,3.26,1.826
			c0.57,0.657,0.855,1.4,0.855,2.231c0,0.705-0.212,1.384-0.638,2.036c-0.425,0.651-1.041,1.171-1.847,1.558
			c-0.807,0.386-1.731,0.579-2.775,0.579c-1.623,0-3.014-0.464-4.173-1.394l-0.305,1.046h-1.032l-1.808-4.738l1.304-0.521
			c0.88,1.391,1.712,2.376,2.496,2.956c1.093,0.821,2.274,1.231,3.542,1.231c0.841,0,1.533-0.225,2.075-0.674s0.813-0.949,0.813-1.5
			c0-0.453-0.169-0.869-0.507-1.246c-0.348-0.366-1.014-0.724-2-1.072l-3.347-1.217c-1.439-0.521-2.439-1.092-3-1.71
			s-0.84-1.328-0.84-2.13c0-0.976,0.457-1.837,1.369-2.586c0.913-0.749,2.075-1.123,3.485-1.123c0.734,0,1.391,0.094,1.971,0.283
			c0.58,0.188,1.149,0.501,1.71,0.937L69.249,21.266z"/>
		<path fill="#33A2DB" d="M82.188,20.918c1.42,0,2.649,0.294,3.688,0.884s1.857,1.449,2.456,2.579
			c0.599,1.13,0.898,2.42,0.898,3.868c0,1.449-0.307,2.739-0.92,3.869c-0.614,1.13-1.449,1.992-2.507,2.587
			c-1.058,0.594-2.321,0.891-3.789,0.891c-2.338,0-4.094-0.729-5.268-2.188c-1.173-1.459-1.76-3.174-1.76-5.145
			c0-1.439,0.304-2.716,0.912-3.832c0.609-1.116,1.461-1.98,2.558-2.594S80.797,20.918,82.188,20.918z M82.072,22.323
			c-1.101,0-2.033,0.435-2.796,1.304c-0.967,1.082-1.449,2.656-1.449,4.723c0,1.99,0.41,3.507,1.231,4.55
			c0.744,0.928,1.753,1.392,3.028,1.392c0.821,0,1.553-0.218,2.195-0.652s1.161-1.128,1.558-2.079
			c0.396-0.951,0.594-2.069,0.594-3.354c0-1.256-0.212-2.381-0.638-3.376c-0.328-0.792-0.823-1.408-1.484-1.848
			C83.649,22.543,82.903,22.323,82.072,22.323z"/>
		<path fill="#33A2DB" d="M91.446,23.367v-1.232c0.727-0.068,1.361-0.188,1.904-0.359c0.542-0.171,1.162-0.457,1.86-0.858h1.075
			v2.434c1.102-0.87,1.961-1.454,2.579-1.753c0.947-0.454,1.85-0.681,2.71-0.681c0.589,0,1.166,0.108,1.731,0.326
			s1.019,0.485,1.362,0.804c0.343,0.319,0.635,0.753,0.876,1.304c1.015-0.898,1.954-1.529,2.818-1.891s1.741-0.543,2.63-0.543
			c0.85,0,1.602,0.176,2.253,0.529c0.652,0.353,1.126,0.794,1.42,1.326c0.295,0.531,0.442,1.309,0.442,2.333v6.723
			c0,0.706,0.015,1.116,0.043,1.232c0.048,0.184,0.151,0.357,0.31,0.521c0.159,0.164,0.339,0.28,0.541,0.348
			c0.201,0.067,0.576,0.102,1.123,0.102h0.461v1.217h-7.259v-1.217c0.83-0.01,1.369-0.07,1.615-0.182
			c0.246-0.11,0.43-0.292,0.551-0.543c0.12-0.251,0.181-0.744,0.181-1.479v-6.39c0-0.812-0.072-1.372-0.218-1.681
			s-0.404-0.567-0.776-0.775c-0.373-0.208-0.835-0.312-1.387-0.312c-0.688,0-1.409,0.184-2.164,0.551
			c-1.007,0.502-1.8,1.067-2.381,1.695v6.911c0,0.667,0.031,1.104,0.094,1.312c0.063,0.208,0.169,0.382,0.319,0.521
			c0.149,0.141,0.323,0.237,0.521,0.29c0.198,0.054,0.679,0.08,1.441,0.08v1.217h-7.129v-1.217h0.406
			c0.569,0,0.973-0.067,1.21-0.203c0.236-0.135,0.422-0.343,0.558-0.623c0.097-0.223,0.145-0.681,0.145-1.377v-6.172
			c0-0.908-0.07-1.521-0.21-1.84c-0.141-0.319-0.409-0.589-0.807-0.812c-0.396-0.222-0.861-0.333-1.394-0.333
			c-0.629,0-1.263,0.155-1.902,0.464c-0.948,0.454-1.819,1.048-2.613,1.782v7.447c0,0.444,0.061,0.771,0.181,0.979
			c0.121,0.208,0.312,0.374,0.573,0.5c0.261,0.125,0.617,0.188,1.072,0.188h0.536v1.217h-7.274v-1.217h0.389
			c0.663,0,1.1-0.054,1.312-0.16c0.307-0.145,0.528-0.376,0.662-0.695c0.077-0.174,0.115-0.623,0.115-1.348v-8.461H91.446z"/>
		<path fill="#33A2DB" d="M131.786,31.51l0.927,0.753c-0.705,0.841-1.389,1.508-2.05,2c-0.662,0.493-1.287,0.838-1.877,1.036
			c-0.589,0.198-1.279,0.297-2.071,0.297c-1.42,0-2.628-0.29-3.623-0.869c-1.14-0.667-2.014-1.536-2.622-2.608
			s-0.913-2.338-0.913-3.797c0-1.525,0.295-2.83,0.884-3.912c0.589-1.082,1.413-1.934,2.471-2.557s2.282-0.935,3.673-0.935
			c1.034,0,1.932,0.161,2.695,0.484c0.763,0.323,1.41,0.81,1.941,1.46c0.531,0.65,0.918,1.395,1.159,2.233
			c0.136,0.492,0.213,1.127,0.232,1.908h-10.245c-0.028,0.475-0.043,0.828-0.043,1.061c0,1.22,0.212,2.306,0.638,3.26
			c0.425,0.953,0.987,1.655,1.688,2.105c0.7,0.449,1.495,0.675,2.384,0.675c0.754,0,1.482-0.177,2.188-0.529
			C129.927,33.222,130.781,32.534,131.786,31.51z M129.932,25.656c-0.146-0.889-0.351-1.545-0.616-1.971
			c-0.266-0.425-0.643-0.763-1.13-1.014c-0.488-0.251-1.036-0.376-1.645-0.376c-0.609,0-1.179,0.125-1.71,0.376
			c-0.531,0.251-0.974,0.599-1.326,1.043s-0.659,1.092-0.92,1.941H129.932z"/>
	</g>
</g>
<g id="Layer_2">
	
		<line fill="#33A2DB" stroke="#33A2DB" stroke-width="2" stroke-miterlimit="10" x1="16.766" y1="39.503" x2="134.753" y2="39.503"/>
	
		<line fill="#33A2DB" stroke="#33A2DB" stroke-width="2" stroke-miterlimit="10" x1="22.791" y1="43.608" x2="127.831" y2="43.608"/>
	<g>
	</g>
	<g>
	</g>
	<g>
	</g>
	<g>
	</g>
	<g>
	</g>
	<g>
	</g>
</g>
</svg>
